HIERARCHY
ROOT Hips
{
	OFFSET 0.000000 0.000000 0.000000
	CHANNELS 6 Xposition Yposition Zposition Zrotation Yrotation Xrotation 
	JOINT LowerBack
	{
		OFFSET 0.000000 0.000000 0.000000
		CHANNELS 3 Zrotation Yrotation Xrotation
		JOINT Spine
		{
			OFFSET 0.028270 2.035590 -0.193380
			CHANNELS 3 Zrotation Yrotation Xrotation
			JOINT Spine1
			{
				OFFSET 0.056720 2.048850 -0.042750
				CHANNELS 3 Zrotation Yrotation Xrotation
				JOINT Neck
				{
					OFFSET 0.000000 0.000000 0.000000
					CHANNELS 3 Zrotation Yrotation Xrotation
					JOINT Neck1
					{
						OFFSET -0.054170 1.746240 0.172020
						CHANNELS 3 Zrotation Yrotation Xrotation
						JOINT Head
						{
							OFFSET 0.104070 1.761360 -0.123970
							CHANNELS 3 Zrotation Yrotation Xrotation
							End Site
							{
								OFFSET 0.000000 0.000000 0.000000
							}
						}
					}
				}
				JOINT LeftShoulder
				{
					OFFSET 0.000000 0.000000 0.000000
					CHANNELS 3 Zrotation Yrotation Xrotation
					JOINT LeftArm
					{
						OFFSET 3.362410 1.200890 -0.311210
						CHANNELS 3 Zrotation Yrotation Xrotation
						JOINT LeftForeArm
						{
							OFFSET 4.983000 -0.000000 -0.000000
							CHANNELS 3 Zrotation Yrotation Xrotation
							JOINT LeftHand
							{
								OFFSET 3.483560 -0.000000 -0.000000
								CHANNELS 3 Zrotation Yrotation Xrotation
								JOINT LeftFingerBase
								{
									OFFSET 0.000000 0.000000 0.000000
									CHANNELS 3 Zrotation Yrotation Xrotation
									JOINT LeftHandIndex1
									{
										OFFSET 0.715260 -0.000000 -0.000000
										CHANNELS 3 Zrotation Yrotation Xrotation
										End Site
										{
											OFFSET 0.000000 0.000000 0.000000
										}
									}
								}
								JOINT LThumb
								{
									OFFSET 0.000000 0.000000 0.000000
									CHANNELS 3 Zrotation Yrotation Xrotation
									End Site
									{
										OFFSET 0.000000 0.000000 0.000000
									}
								}
							}
						}
					}
				}
				JOINT RightShoulder
				{
					OFFSET 0.000000 0.000000 0.000000
					CHANNELS 3 Zrotation Yrotation Xrotation
					JOINT RightArm
					{
						OFFSET -3.136600 1.374050 -0.404650
						CHANNELS 3 Zrotation Yrotation Xrotation
						JOINT RightForeArm
						{
							OFFSET -5.241900 -0.000000 -0.000000
							CHANNELS 3 Zrotation Yrotation Xrotation
							JOINT RightHand
							{
								OFFSET -3.444170 -0.000000 -0.000000
								CHANNELS 3 Zrotation Yrotation Xrotation
								JOINT RightFingerBase
								{
									OFFSET 0.000000 0.000000 0.000000
									CHANNELS 3 Zrotation Yrotation Xrotation
									JOINT RightHandIndex1
									{
										OFFSET -0.622530 -0.000000 -0.000000
										CHANNELS 3 Zrotation Yrotation Xrotation
										End Site
										{
											OFFSET 0.000000 0.000000 0.000000
										}
									}
								}
								JOINT RThumb
								{
									OFFSET 0.000000 0.000000 0.000000
									CHANNELS 3 Zrotation Yrotation Xrotation
									End Site
									{
										OFFSET 0.000000 0.000000 0.000000
									}
								}
							}
						}
					}
				}
			}
		}
	}
}
}
MOTION
Frames: 7
Frame Time: 0.008333
-11.855992 15.772235 -0.393822 114.704995 89.528077 141.411086 3.776942 -3.855058 9.099949 0.294987 -3.784515 -0.808357 -5.155429 -3.719827 0.542884 8.208126 -15.998306 -10.373915 -2.127514 -0.096862 -1.136500 0.000000 0.000000 0.000000 8.128110 7.964864 1.091237 -51.228711 -11.389045 -0.572165 -179.418814 -81.743269 179.977358 2.063151 6.777555 0.122779 -0.104526 0.337136 -0.000000 0.000000 0.000000 0.000000 0.000000 0.000000 0.000000 8.645741 -12.426544 2.331035 65.615679 -19.088948 7.746230 1.082743 67.110763 0.003801 -0.017509 2.382131 -0.001018 0.059786 -0.154472 -0.000000 0.000000 0.000000 0.000000 0.000000 0.000000 0.000000 
-11.673462 15.750060 -0.372925 102.807989 89.401504 129.295231 3.975193 -3.920141 9.144861 0.343977 -3.853130 -0.809532 -5.123577 -3.788615 0.519469 8.204937 -15.972960 -10.406414 -2.152058 -0.098530 -1.144144 0.000000 0.000000 0.000000 8.147380 7.979409 1.118200 -51.585676 -10.428514 -0.685297 -179.395070 -81.419770 179.979429 1.822196 6.765340 0.108771 -0.099661 0.334454 0.000000 0.000000 0.000000 0.000000 0.000000 0.000000 0.000000 8.692084 -12.378636 2.295492 65.424194 -18.785754 7.559496 1.059003 67.610611 0.003288 -0.238174 2.339276 -0.005805 0.062508 -0.156933 -0.000000 0.000000 0.000000 0.000000 0.000000 0.000000 0.000000 
-11.492193 15.730499 -0.352647 89.805166 89.260753 116.115437 4.125072 -3.965219 9.171211 0.378496 -3.903736 -0.815198 -5.098563 -3.839311 0.494532 8.231664 -15.921134 -10.423997 -2.184801 -0.101072 -1.147532 0.000000 0.000000 0.000000 8.187831 7.982509 1.139711 -52.031063 -9.420512 -0.773223 -179.375497 -81.146136 179.981480 1.591431 6.726069 0.094963 -0.094604 0.331915 -0.000000 0.000000 0.000000 0.000000 0.000000 0.000000 0.000000 8.799226 -12.304266 2.258236 65.220551 -18.389356 7.398125 1.039451 68.049638 0.002773 -0.452969 2.293672 -0.010391 0.065402 -0.159442 -0.000000 0.000000 0.000000 0.000000 0.000000 0.000000 0.000000 
-11.312502 15.713626 -0.332826 76.347524 89.098623 102.527118 4.237174 -3.984436 9.177117 0.401113 -3.930146 -0.825256 -5.081409 -3.865887 0.468992 8.287320 -15.846244 -10.426796 -2.224185 -0.104355 -1.146620 0.000000 0.000000 0.000000 8.249521 7.975238 1.154950 -52.559853 -8.375716 -0.833201 -179.361407 -80.933427 179.983463 1.377095 6.659756 0.081855 -0.089419 0.329531 0.000000 0.000000 0.000000 0.000000 0.000000 0.000000 0.000000 8.960915 -12.203876 2.220294 65.018042 -17.902630 7.253403 1.024187 68.426376 0.002275 -0.655152 2.247676 -0.014477 0.068407 -0.162044 -0.000000 0.000000 0.000000 0.000000 0.000000 0.000000 0.000000 
-11.134713 15.699485 -0.313282 63.743572 88.914562 89.841510 4.333028 -3.977973 9.160658 0.417409 -3.931554 -0.839544 -5.072971 -3.867694 0.444005 8.369755 -15.751144 -10.415654 -2.268611 -0.108234 -1.141616 0.000000 0.000000 0.000000 8.331363 7.959518 1.164076 -53.165395 -7.310174 -0.860575 -179.353786 -80.793502 179.985349 1.182231 6.568500 0.069847 -0.084166 0.327300 -0.000000 0.000000 0.000000 0.000000 0.000000 0.000000 0.000000 9.169409 -12.079455 2.182255 64.830453 -17.331578 7.113680 1.012942 68.741704 0.001805 -0.840008 2.201763 -0.018063 0.071440 -0.164761 -0.000000 0.000000 0.000000 0.000000 0.000000 0.000000 0.000000 
-10.959144 15.688061 -0.293906 53.124913 88.717077 79.188869 4.430427 -3.952563 9.122133 0.432372 -3.913576 -0.857658 -5.073233 -3.850408 0.420201 8.475509 -15.639007 -10.391451 -2.316316 -0.112550 -1.132808 0.000000 0.000000 0.000000 8.430836 7.932235 1.168145 -53.838899 -6.239186 -0.852218 -179.353256 -80.737572 179.987119 1.007488 6.455679 0.058941 -0.078899 0.325200 -0.000000 0.000000 0.000000 0.000000 0.000000 0.000000 0.000000 9.414707 -11.936285 2.144592 64.672536 -16.683309 6.968196 1.005136 68.996776 0.001359 -1.008111 2.158095 -0.021248 0.074428 -0.167636 -0.000000 0.000000 0.000000 0.000000 0.000000 0.000000 0.000000 
-10.786135 15.679364 -0.274583 44.925841 88.518364 70.999789 4.533679 -3.916539 9.063168 0.447695 -3.884017 -0.879082 -5.081355 -3.821796 0.397961 8.600470 -15.511494 -10.355175 -2.365709 -0.117154 -1.120560 0.000000 0.000000 0.000000 8.545148 7.890954 1.168889 -54.568993 -5.178556 -0.805202 -179.360104 -80.776987 179.988774 0.850820 6.326524 0.049234 -0.073664 0.323163 0.000000 0.000000 0.000000 0.000000 0.000000 0.000000 0.000000 9.687047 -11.779157 2.107339 64.558825 -15.967056 6.805991 0.999964 69.194637 0.000928 -1.162531 2.117630 -0.024033 0.077298 -0.170705 -0.000000 0.000000 0.000000 0.000000 0.000000 0.000000 0.000000 
